<svg aria-hidden="true" style="position: absolute; width: 0; height: 0; overflow: hidden;" version="1.1" xmlns="http://www.w3.org/2000/svg" xmlns:xlink="http://www.w3.org/1999/xlink">
<defs>
<symbol id="icon-youtube" viewBox="0 0 32 32">
<path fill="#fff" style="fill: var(--color1, #fff)" d="M29.119 6.879c-0.454-0.468-1.024-0.808-1.651-0.986-2.293-0.56-11.467-0.56-11.467-0.56s-9.173 0-11.467 0.613c-0.628 0.178-1.197 0.518-1.652 0.986s-0.777 1.048-0.935 1.681c-0.42 2.327-0.625 4.688-0.613 7.053-0.015 2.383 0.19 4.762 0.613 7.107 0.175 0.613 0.504 1.171 0.958 1.619s1.014 0.772 1.629 0.941c2.293 0.613 11.467 0.613 11.467 0.613s9.173 0 11.467-0.613c0.628-0.178 1.197-0.518 1.651-0.986s0.777-1.048 0.935-1.681c0.416-2.31 0.622-4.653 0.613-7 0.015-2.383-0.19-4.762-0.613-7.107-0.158-0.633-0.481-1.213-0.935-1.681zM20.667 15.667l-7.667 4.36v-8.72l7.667 4.36z"></path>
</symbol>
<symbol id="icon-twitter" viewBox="0 0 32 32">
<path fill="#fff" style="fill: var(--color1, #fff)" d="M30.667 4c-1.277 0.901-2.691 1.589-4.187 2.040-0.803-0.923-1.87-1.578-3.057-1.875s-2.437-0.222-3.58 0.214c-1.143 0.436-2.125 1.213-2.812 2.226s-1.047 2.212-1.031 3.435v1.333c-2.343 0.061-4.665-0.459-6.759-1.513s-3.894-2.609-5.241-4.527c0 0-5.333 12 6.667 17.333-2.746 1.864-6.017 2.799-9.333 2.667 12 6.667 26.667 0 26.667-15.333-0.001-0.371-0.037-0.742-0.107-1.107 1.361-1.342 2.321-3.036 2.773-4.893z"></path>
</symbol>
<symbol id="icon-Shape" viewBox="0 0 32 32">
<path fill="#ff5e5e" style="fill: var(--color2, #ff5e5e)" d="M32 16c0 8.837-7.163 16-16 16s-16-7.163-16-16c0-8.837 7.163-16 16-16s16 7.163 16 16z"></path>
</symbol>
<symbol id="icon-Mark" viewBox="0 0 32 32">
<path fill="#15b2f5" style="fill: var(--color3, #15b2f5)" d="M14.080 7.75c1.142-0.84 2.698-0.84 3.84 0l6.888 5.065c0.831 0.611 1.321 1.58 1.321 2.611v10.332h-6.483v-8.692l-3.647-2.681-3.646 2.681v8.692h-6.483v-10.332c0-1.031 0.491-2.001 1.321-2.611l6.888-5.065z"></path>
<path fill="#fff" style="fill: var(--color1, #fff)" d="M12.395 25.758h7.243v5.242h-7.243v-5.242z"></path>
</symbol>
<symbol id="icon-mail" viewBox="0 0 32 32">
<path fill="#fff" style="fill: var(--color1, #fff)" d="M5.333 5.333h21.333c1.467 0 2.667 1.2 2.667 2.667v16c0 1.467-1.2 2.667-2.667 2.667h-21.333c-1.467 0-2.667-1.2-2.667-2.667v-16c0-1.467 1.2-2.667 2.667-2.667z"></path>
<path fill="none" stroke="#15b2f5" style="stroke: var(--color3, #15b2f5)" stroke-linejoin="round" stroke-linecap="round" stroke-miterlimit="4" stroke-width="2.6667" d="M29.333 8l-13.333 9.333-13.333-9.333"></path>
</symbol>
<symbol id="icon-Logo" viewBox="0 0 32 32">
<path fill="#fff" style="fill: var(--color1, #fff)" d="M13.475 0.945c1.512-1.112 3.572-1.112 5.085 0l9.12 6.706c1.1 0.809 1.749 2.092 1.749 3.458v13.68h-8.584v-11.509l-4.828-3.55-4.828 3.55v11.509h-8.584v-13.68c0-1.365 0.649-2.649 1.749-3.458l9.12-6.706z"></path>
<path fill="#142257" style="fill: var(--color4, #142257)" d="M11.244 24.788h9.59v6.941h-9.59v-6.941z"></path>
</symbol>
<symbol id="icon-instagram" viewBox="0 0 32 32">
<path fill="#fff" style="fill: var(--color1, #fff)" d="M22.667 2.667h-13.333c-3.682 0-6.667 2.985-6.667 6.667v13.333c0 3.682 2.985 6.667 6.667 6.667h13.333c3.682 0 6.667-2.985 6.667-6.667v-13.333c0-3.682-2.985-6.667-6.667-6.667z"></path>
<path fill="none" stroke="#15b2f5" style="stroke: var(--color3, #15b2f5)" stroke-linejoin="round" stroke-linecap="round" stroke-miterlimit="4" stroke-width="2.6667" d="M21.333 15.16c0.165 1.11-0.025 2.243-0.542 3.239s-1.334 1.803-2.336 2.308c-1.002 0.504-2.137 0.68-3.245 0.502s-2.131-0.701-2.924-1.494c-0.793-0.793-1.316-1.816-1.494-2.924s-0.003-2.243 0.502-3.245c0.504-1.002 1.312-1.82 2.308-2.336s2.129-0.706 3.239-0.542c1.132 0.168 2.18 0.695 2.989 1.504s1.337 1.857 1.504 2.989z"></path>
<path fill="none" stroke="#15b2f5" style="stroke: var(--color3, #15b2f5)" stroke-linejoin="round" stroke-linecap="round" stroke-miterlimit="4" stroke-width="2.6667" d="M23.333 8.667h0.013"></path>
</symbol>
<symbol id="icon-Ic-Plumbing-Filled" viewBox="0 0 32 32">
<path fill="#fff" style="fill: var(--color1, #fff)" d="M26.683 5.889l-3.183-3.048c-1.171-1.121-3.078-1.121-4.25 0l-4.25 4.069 3.183 3.048 3.183-3.048 5.316 5.090c0.844-0.812 1.318-1.91 1.318-3.055s-0.474-2.244-1.318-3.055z"></path>
<path fill="#fff" style="fill: var(--color1, #fff)" d="M6.616 18.386c0.821 0.819 2.142 0.819 2.949 0l3.436-3.429-2.949-2.957-3.436 3.429c-0.821 0.819-0.821 2.138 0 2.957z"></path>
<path fill="#fff" style="fill: var(--color1, #fff)" d="M20.432 10.134l4.139 4.011c0.136 0.131 0.244 0.287 0.317 0.458s0.111 0.355 0.111 0.541-0.038 0.369-0.111 0.541c-0.074 0.171-0.181 0.327-0.317 0.458s-0.297 0.235-0.475 0.306c-0.178 0.071-0.368 0.108-0.56 0.108s-0.382-0.037-0.56-0.108c-0.178-0.071-0.339-0.175-0.475-0.306l-13.489 13.026c-1.145 1.106-3.009 1.106-4.154 0s-1.145-2.906 0-4.011l10.377-10.021-4.668-4.508c-0.206-0.196-0.369-0.43-0.481-0.688s-0.169-0.535-0.169-0.814c0-0.28 0.057-0.556 0.169-0.814s0.275-0.492 0.481-0.688c0.851-0.836 2.246-0.836 3.112 0.014l4.668 4.507 2.084-2.013z"></path>
</symbol>
<symbol id="icon-Ic_Wood-Tree-Filled" viewBox="0 0 32 32">
<path fill="#fff" style="fill: var(--color1, #fff)" d="M27.777 2.367h-2.82c-0.178 0-0.341 0.101-0.42 0.26l-2.4 4.8-2.4-4.8c-0.080-0.159-0.242-0.26-0.421-0.26h-10.342c-0.26 0-0.47 0.21-0.47 0.47v12.306l-4.448-2.831c-0.185-0.118-0.429-0.092-0.585 0.064l-2.35 2.35c-0.176 0.176-0.185 0.459-0.019 0.645l7.402 8.328v5.462c0 0.26 0.21 0.47 0.47 0.47h5.171v-7.521c0-0.26 0.21-0.47 0.47-0.47s0.47 0.21 0.47 0.47v7.521h12.692c0.26 0 0.47-0.21 0.47-0.47v-26.325c0-0.26-0.21-0.47-0.47-0.47zM15.085 19.29c0 0.26-0.21 0.47-0.47 0.47s-0.47-0.21-0.47-0.47v-0.94c0-0.26 0.21-0.47 0.47-0.47s0.47 0.21 0.47 0.47v0.94z"></path>
</symbol>
<symbol id="icon-Ic_Wall-Filled" viewBox="0 0 32 32">
<path fill="#fff" style="fill: var(--color1, #fff)" d="M4 7.2c0-0.442 0.358-0.8 0.8-0.8h9.665c0.442 0 0.8 0.358 0.8 0.8v3.805c0 0.442-0.358 0.8-0.8 0.8h-9.665c-0.442 0-0.8-0.358-0.8-0.8v-3.805z"></path>
<path fill="#fff" style="fill: var(--color1, #fff)" d="M4 14.497c0-0.442 0.358-0.8 0.8-0.8h4.767c0.442 0 0.8 0.358 0.8 0.8v3.805c0 0.442-0.358 0.8-0.8 0.8h-4.767c-0.442 0-0.8-0.358-0.8-0.8v-3.805z"></path>
<path fill="#fff" style="fill: var(--color1, #fff)" d="M11.837 14.497c0-0.442 0.358-0.8 0.8-0.8h9.665c0.442 0 0.8 0.358 0.8 0.8v3.805c0 0.442-0.358 0.8-0.8 0.8h-9.665c-0.442 0-0.8-0.358-0.8-0.8v-3.805z"></path>
<path fill="#fff" style="fill: var(--color1, #fff)" d="M4 21.795c0-0.442 0.358-0.8 0.8-0.8h9.665c0.442 0 0.8 0.358 0.8 0.8v3.805c0 0.442-0.358 0.8-0.8 0.8h-9.665c-0.442 0-0.8-0.358-0.8-0.8v-3.805z"></path>
<path fill="#fff" style="fill: var(--color1, #fff)" d="M16.735 21.795c0-0.442 0.358-0.8 0.8-0.8h9.665c0.442 0 0.8 0.358 0.8 0.8v3.805c0 0.442-0.358 0.8-0.8 0.8h-9.665c-0.442 0-0.8-0.358-0.8-0.8v-3.805z"></path>
</symbol>
<symbol id="icon-Ic_Roof_Filled" viewBox="0 0 32 32">
<path fill="#fff" style="fill: var(--color1, #fff)" d="M11.129 11.925h-5.040l-0.28 0.539h5.011l-2.19 3.826h-4.808l-0.28 0.539h4.78l-2.017 3.524h-4.616l1.241-2.386v-1.137h0.015v-0.539h-0.015v-3.826h0.015v-0.539h-0.015v-0.286h0.015v-1.064h3.829l1.413-2.716h5.269l-2.328 4.066z"></path>
<path fill="#fff" style="fill: var(--color1, #fff)" d="M14.077 7.859l-2.328 4.066h4.376l2.328-4.066h-4.376z"></path>
<path fill="#fff" style="fill: var(--color1, #fff)" d="M19.074 7.859l-2.328 4.066h4.711l1.041-2.031 7.071 14.247h2.713l-8.47-16.282h-4.739z"></path>
<path fill="#fff" style="fill: var(--color1, #fff)" d="M21.181 12.464h-4.744l-2.19 3.826h4.973l1.961-3.826z"></path>
<path fill="#fff" style="fill: var(--color1, #fff)" d="M18.945 16.828h-5.005l-2.017 3.524h5.217l1.806-3.524z"></path>
<path fill="#fff" style="fill: var(--color1, #fff)" d="M16.863 20.89h-5.249l-1.861 3.251h5.444l1.666-3.251z"></path>
<path fill="#fff" style="fill: var(--color1, #fff)" d="M9.132 24.141l1.861-3.251h-4.376l-1.861 3.251h4.376z"></path>
<path fill="#fff" style="fill: var(--color1, #fff)" d="M4.136 24.141l1.861-3.251h-4.588l-1.691 3.251h4.418z"></path>
<path fill="#fff" style="fill: var(--color1, #fff)" d="M11.441 12.464h4.376l-2.19 3.826h-4.376l2.19-3.826z"></path>
<path fill="#fff" style="fill: var(--color1, #fff)" d="M8.943 16.828l-2.017 3.524h4.376l2.017-3.524h-4.376z"></path>
<path fill="#fff" style="fill: var(--color1, #fff)" d="M19.91 17.978h2.374v2.374h-2.374v-2.374z"></path>
<path fill="#fff" style="fill: var(--color1, #fff)" d="M19.91 20.946h2.374v2.374h-2.374v-2.374z"></path>
<path fill="#fff" style="fill: var(--color1, #fff)" d="M25.252 17.978h-2.374v2.374h2.374v-2.374z"></path>
<path fill="#fff" style="fill: var(--color1, #fff)" d="M22.877 20.946h2.374v2.374h-2.374v-2.374z"></path>
</symbol>
<symbol id="icon-Ic_Repair_Filled" viewBox="0 0 32 32">
<path fill="#fff" style="fill: var(--color1, #fff)" d="M22.944 6.364c-0.446 0.463-0.689 1.085-0.675 1.727 0.027 1.338 1.136 2.4 2.475 2.373 0.643-0.013 1.255-0.281 1.701-0.744l3.224-3.354c0.638 1.266 0.866 2.698 0.655 4.099s-0.852 2.702-1.835 3.724c-0.983 1.022-2.259 1.715-3.652 1.983s-2.836 0.098-4.128-0.486c-1.707-1.27-2.464-2.006-3.5-3.355-0.638-1.266-0.866-2.698-0.655-4.099s0.853-2.702 1.835-3.725c0.983-1.022 2.259-1.715 3.652-1.983s2.836-0.098 4.128 0.486l-3.224 3.354z"></path>
<path fill="#fff" style="fill: var(--color1, #fff)" d="M10.893 19.029l3.518 3.336-5.223 5.541c-0.446 0.464-1.057 0.731-1.701 0.744s-1.265-0.23-1.73-0.674c-0.464-0.445-0.732-1.056-0.745-1.698s0.23-1.264 0.675-1.727l5.205-5.522z"></path>
<path fill="#fff" style="fill: var(--color1, #fff)" d="M15.332 13.043l11.434 10.841c1.13 1.072 1.19 2.851 0.135 3.996-1.079 1.171-2.91 1.233-4.065 0.137l-11.434-10.841c-0.931-0.883-1.136-2.246-0.589-3.339l-5.308-5.117-0.984 0.984-2.921-3.935 1.807-1.995 4.224 2.822-0.976 0.976 5.269 5.079c1.068-0.626 2.464-0.504 3.409 0.392z"></path>
</symbol>
<symbol id="icon-Ic_Quotes-Filled" viewBox="0 0 32 32">
<path fill="#9ea3b5" style="fill: var(--color5, #9ea3b5)" d="M18.391 4.977c0-0.076-0.030-0.149-0.084-0.203s-0.127-0.084-0.203-0.084h-8.046c-0.838 0-1.642 0.333-2.235 0.926s-0.926 1.397-0.926 2.235v16.092c0 0.838 0.333 1.642 0.926 2.235s1.397 0.926 2.235 0.926h11.494c0.838 0 1.642-0.333 2.235-0.926s0.926-1.397 0.926-2.235v-1.265l-0.38 0.379-3.092 0.712-0.104 0.010c-0.129 0.013-0.258 0.015-0.387 0.007-0.313-0.013-0.621-0.090-0.904-0.227-0.307-0.148-0.576-0.364-0.789-0.629s-0.363-0.576-0.441-0.908c-0.078-0.332-0.080-0.676-0.007-1.009l0.002-0.010 0.691-2.984 5.409-5.424c-0.006-0.068-0.035-0.131-0.083-0.18-0.054-0.054-0.127-0.084-0.203-0.084h-5.172c-0.229 0-0.448-0.091-0.61-0.252s-0.252-0.381-0.252-0.61v-6.491zM9.184 14.069c0-0.457 0.371-0.828 0.828-0.828h3.586c0.457 0 0.828 0.371 0.828 0.828s-0.371 0.828-0.828 0.828h-3.586c-0.457 0-0.828-0.371-0.828-0.828zM9.184 18.207c0-0.457 0.371-0.828 0.828-0.828h6.345c0.457 0 0.828 0.371 0.828 0.828s-0.371 0.828-0.828 0.828h-6.345c-0.457 0-0.828-0.371-0.828-0.828zM9.184 22.345c0-0.457 0.37-0.828 0.828-0.828h6.345c0.457 0 0.828 0.371 0.828 0.828s-0.371 0.828-0.828 0.828h-6.345c-0.457 0-0.828-0.371-0.828-0.828z"></path>
<path fill="#9ea3b5" style="fill: var(--color5, #9ea3b5)" d="M24.713 20.34v-5.403l-3.905 3.915-0.582 2.513c-0.020 0.092-0.019 0.187 0.002 0.279s0.063 0.177 0.122 0.251 0.133 0.133 0.218 0.174c0.085 0.041 0.177 0.063 0.271 0.063 0.044 0.004 0.088 0.004 0.132 0l2.529-0.582 1.213-1.21z"></path>
<path fill="#9ea3b5" style="fill: var(--color5, #9ea3b5)" d="M20.211 5.654c0-0.201 0.202-0.328 0.351-0.203 0.126 0.107 0.24 0.231 0.337 0.373l3.147 4.578c0.071 0.105-0.006 0.24-0.13 0.24h-3.444c-0.069 0-0.136-0.029-0.185-0.080s-0.076-0.12-0.076-0.193v-4.716z"></path>
<path fill="#9ea3b5" style="fill: var(--color5, #9ea3b5)" d="M20.808 18.852l-0.582 2.513c-0.020 0.092-0.019 0.187 0.002 0.279s0.063 0.177 0.122 0.251 0.133 0.133 0.218 0.174c0.085 0.041 0.177 0.063 0.271 0.063 0.044 0.004 0.088 0.004 0.132 0l2.529-0.582 4.436-4.424-2.71-2.703-4.418 4.43z"></path>
<path fill="#9ea3b5" style="fill: var(--color5, #9ea3b5)" d="M29.881 14.291l-1.808-1.808c-0.119-0.118-0.28-0.185-0.448-0.185s-0.329 0.066-0.448 0.185l-1.005 1.005 2.707 2.707 1.005-1.005c0.059-0.059 0.105-0.129 0.137-0.206s0.048-0.16 0.048-0.243c-0-0.083-0.017-0.166-0.049-0.243s-0.079-0.147-0.139-0.206z"></path>
</symbol>
<symbol id="icon-IC_phone" viewBox="0 0 32 32">
<path fill="#15b2f5" style="fill: var(--color3, #15b2f5)" d="M28.8 22.297v3.84c0.002 0.356-0.072 0.709-0.214 1.036s-0.352 0.62-0.615 0.861-0.573 0.424-0.91 0.539c-0.338 0.114-0.696 0.157-1.051 0.125-3.939-0.428-7.722-1.774-11.046-3.93-3.093-1.965-5.715-4.587-7.68-7.68-2.163-3.339-3.509-7.141-3.93-11.098-0.032-0.354 0.010-0.711 0.124-1.048s0.296-0.646 0.535-0.909c0.24-0.262 0.531-0.472 0.856-0.616s0.677-0.218 1.032-0.218h3.84c0.621-0.006 1.223 0.214 1.694 0.619s0.779 0.968 0.866 1.583c0.162 1.229 0.463 2.436 0.896 3.597 0.172 0.458 0.21 0.956 0.107 1.435s-0.339 0.918-0.683 1.266l-1.626 1.626c1.822 3.205 4.475 5.858 7.68 7.68l1.626-1.626c0.348-0.344 0.787-0.581 1.266-0.684s0.977-0.065 1.435 0.108c1.161 0.433 2.368 0.734 3.597 0.896 0.622 0.088 1.19 0.401 1.596 0.88s0.622 1.091 0.606 1.719z"></path>
</symbol>
<symbol id="icon-Ic_Local-Filled" viewBox="0 0 32 32">
<path fill="#9ea3b5" style="fill: var(--color5, #9ea3b5)" d="M13.014 26.56l-7.36 0.96-1.12-5.28 5.6-0.96 2.88 5.28z"></path>
<path fill="#9ea3b5" style="fill: var(--color5, #9ea3b5)" d="M29.014 26.080l-6.72 0.8-1.12-5.28 4.96-0.8 2.88 5.28z"></path>
<path fill="#9ea3b5" style="fill: var(--color5, #9ea3b5)" d="M13.182 23.322l-0.328 0.038 2.72 4.8 5.28-0.32-1.11-5.23c-0.244 0.221-0.48 0.427-0.703 0.616-1.697 1.444-4.13 1.476-5.86 0.096z"></path>
<path fill="#9ea3b5" style="fill: var(--color5, #9ea3b5)" d="M18.005 22.008c2.459-2.093 6.369-6.122 6.369-10.589 0-2.222-0.877-4.353-2.437-5.924s-3.677-2.454-5.883-2.454-4.323 0.883-5.883 2.454c-1.56 1.571-2.437 3.702-2.437 5.924 0 4.467 3.91 8.497 6.369 10.589 1.138 0.968 2.764 0.968 3.902 0zM19.894 11.36c0 2.121-1.719 3.84-3.84 3.84s-3.84-1.719-3.84-3.84c0-2.121 1.719-3.84 3.84-3.84s3.84 1.719 3.84 3.84z"></path>
</symbol>
<symbol id="icon-Ic_Guarantee-Filled" viewBox="0 0 32 32">
<path fill="#9ea3b5" style="fill: var(--color5, #9ea3b5)" d="M14.217 3.332c1.005-1.036 2.668-1.036 3.673 0l0.574 0.591c0.487 0.501 1.157 0.782 1.856 0.777l0.828-0.006c1.429-0.011 2.59 1.15 2.579 2.579l-0.007 0.917c-0.005 0.686 0.265 1.345 0.75 1.829l0.651 0.651c1 1 1 2.621 0 3.621l-0.651 0.651c-0.485 0.485-0.755 1.144-0.75 1.829l0.007 0.917c0.011 1.429-1.151 2.59-2.579 2.579l-0.828-0.006c-0.699-0.005-1.369 0.275-1.856 0.777l-0.574 0.591c-1.006 1.036-2.668 1.036-3.674 0l-0.574-0.591c-0.487-0.501-1.157-0.782-1.856-0.777l-0.828 0.006c-1.429 0.011-2.59-1.15-2.579-2.579l0.007-0.917c0.005-0.686-0.265-1.345-0.75-1.829l-0.651-0.651c-1-1-1-2.621 0-3.621l0.651-0.651c0.485-0.485 0.755-1.144 0.75-1.829l-0.007-0.917c-0.011-1.429 1.151-2.59 2.579-2.579l0.828 0.006c0.699 0.005 1.369-0.275 1.856-0.777l0.574-0.591zM16.597 12.343l-0.587-0.588c-0.135-0.135-0.317-0.21-0.507-0.211s-0.373 0.074-0.508 0.208l-4.084 3.769c-0.149 0.14-0.246 0.319-0.255 0.519-0.004 0.099 0.012 0.198 0.047 0.291s0.090 0.177 0.16 0.248l0.879 0.889c0.136 0.135 0.319 0.211 0.511 0.212h0.027c0.2-0.007 0.379-0.101 0.521-0.251l3.796-4.066c0.067-0.067 0.121-0.146 0.157-0.234s0.056-0.181 0.056-0.276-0.018-0.189-0.054-0.276c-0.036-0.088-0.089-0.167-0.156-0.234zM21.319 11.155l-0.007-0.007-0.771-0.763c-0.045-0.045-0.099-0.081-0.158-0.105s-0.122-0.036-0.186-0.036c-0.103 0-0.204 0.033-0.288 0.093 0-0.007 0.001-0.014 0.001-0.020l0.001-0.008 0-0.001c0.010-0.146 0.025-0.367-0.117-0.566-0.17-0.229-0.356-0.445-0.558-0.647l-0.001-0.001-0.001-0.001c-0.3-0.295-0.952-0.851-1.951-1.259-0.379-0.156-0.785-0.235-1.194-0.235-0.71 0-1.25 0.32-1.457 0.51-0.117 0.112-0.224 0.234-0.319 0.365-0.045 0.063-0.069 0.139-0.068 0.216s0.027 0.153 0.074 0.214c0.047 0.062 0.113 0.106 0.187 0.127s0.154 0.018 0.226-0.010c0.063-0.024 0.128-0.043 0.193-0.059 0.136-0.029 0.276-0.038 0.415-0.026 0.297 0.024 0.648 0.172 0.803 0.295 0.263 0.212 0.39 0.497 0.411 0.925 0.004 0.086-0.174 0.408-0.45 0.776-0.053 0.069-0.078 0.155-0.072 0.242s0.043 0.169 0.105 0.23l0.774 0.774c0.065 0.065 0.153 0.103 0.245 0.106s0.182-0.030 0.25-0.092c0.219-0.196 0.552-0.49 0.669-0.563 0.173-0.106 0.297-0.127 0.331-0.13 0.088-0.009 0.177 0.010 0.254 0.054 0 0.004-0 0.008-0.001 0.011-0.001 0.002-0.002 0.005-0.003 0.007s-0.002 0.002-0.003 0.003l-0.041 0.039-0.007 0.006c-0.045 0.045-0.081 0.099-0.106 0.158s-0.037 0.122-0.037 0.186c0 0.064 0.013 0.127 0.037 0.186s0.061 0.112 0.106 0.157l0.771 0.763c0.045 0.045 0.099 0.081 0.158 0.105s0.122 0.036 0.186 0.036c0.128 0 0.251-0.050 0.342-0.139l1.249-1.233c0.004-0.004 0.009-0.009 0.013-0.013 0.084-0.092 0.13-0.212 0.128-0.336s-0.049-0.244-0.135-0.334z"></path>
<path fill="#9ea3b5" style="fill: var(--color5, #9ea3b5)" d="M17.924 23.917l2.88 5.567c0.234 0.452 0.875 0.463 1.126 0.021l1.46-2.585-1.483-2.426c-0.184-0.302-0.089-0.696 0.212-0.88s0.695-0.089 0.88 0.212l1.499 2.453 3.061 0.312c0.506 0.052 0.867-0.479 0.633-0.931l-3.048-5.891c-0.751 1.445-2.268 2.43-4.012 2.416l-0.828-0.006c-0.175-0.001-0.342 0.069-0.464 0.194l-0.574 0.591c-0.398 0.41-0.855 0.727-1.344 0.952z"></path>
<path fill="#9ea3b5" style="fill: var(--color5, #9ea3b5)" d="M7.243 20.238l-2.806 5.423c-0.234 0.452 0.127 0.982 0.633 0.931l3.015-0.307 1.502-2.458c0.184-0.302 0.578-0.397 0.88-0.212s0.397 0.578 0.212 0.88l-1.46 2.389 1.481 2.622c0.25 0.443 0.892 0.431 1.126-0.021l2.791-5.395c-0.653-0.22-1.265-0.595-1.778-1.124l-0.574-0.591c-0.122-0.125-0.289-0.196-0.464-0.194l-0.828 0.006c-1.548 0.012-2.917-0.763-3.731-1.948z"></path>
</symbol>
<symbol id="icon-Ic_Door-Filled" viewBox="0 0 32 32">
<path fill="#fff" style="fill: var(--color1, #fff)" d="M29.036 7.983h-13.456c-0.456-0.447-1.035-0.75-1.662-0.87s-1.277-0.052-1.866 0.196c-0.589 0.248-1.092 0.664-1.446 1.196s-0.542 1.157-0.542 1.796c0 0.639 0.189 1.264 0.542 1.796s0.857 0.948 1.446 1.196c0.589 0.248 1.238 0.316 1.866 0.196s1.206-0.422 1.662-0.87h13.456c0.123 0 0.241-0.049 0.328-0.136s0.136-0.205 0.136-0.328v-3.709c0-0.123-0.049-0.241-0.136-0.328s-0.205-0.136-0.328-0.136z"></path>
<path fill="#fff" style="fill: var(--color1, #fff)" d="M17.328 0.584h-9.146c-0.606 0-1.188 0.241-1.617 0.67s-0.67 1.010-0.67 1.617l-0.437 26.261c0 0.606 0.241 1.188 0.67 1.617s1.010 0.67 1.617 0.67h9.146c0.606 0 1.188-0.241 1.617-0.67s0.67-1.010 0.67-1.617l0.437-14.829h-3.056c-1.054 0.852-2.402 1.253-3.751 1.116s-2.589-0.8-3.451-1.846c-0.566-0.686-0.944-1.506-1.098-2.381s-0.079-1.776 0.218-2.613c0.297-0.838 0.806-1.584 1.478-2.166s1.482-0.981 2.353-1.156c0.336-0.066 0.677-0.099 1.020-0.099 1.176-0.003 2.318 0.401 3.231 1.143h3.057v-3.43c0-0.606-0.241-1.188-0.67-1.617s-1.010-0.67-1.617-0.67zM12.318 19.413c0.502-0.002 0.992 0.162 1.391 0.466s0.687 0.733 0.817 1.218c0.13 0.485 0.097 1-0.096 1.464s-0.534 0.851-0.97 1.101v2.609c0 0.152-0.060 0.297-0.167 0.404s-0.253 0.167-0.404 0.167h-1.143c-0.152 0-0.297-0.060-0.404-0.167s-0.167-0.253-0.167-0.404v-2.609c-0.436-0.25-0.777-0.637-0.969-1.101s-0.226-0.979-0.096-1.464c0.131-0.485 0.418-0.914 0.818-1.218s0.889-0.469 1.391-0.466z"></path>
</symbol>
<symbol id="icon-Ic_Commitment-Filled" viewBox="0 0 32 32">
<path fill="#9ea3b5" style="fill: var(--color5, #9ea3b5)" d="M26.759 14.157c0 6.143-5.744 11.122-12.828 11.122-0.343 0-0.685-0.011-1.027-0.035 1.904 1.712 4.565 2.776 7.509 2.776 1.039 0.002 2.073-0.133 3.077-0.401 0.764 0.388 2.521 1.133 5.477 1.619 0.261 0.042 0.461-0.231 0.358-0.475-0.464-1.097-0.883-2.558-1.010-3.891 1.608-1.613 2.581-3.725 2.581-6.034 0-3.154-1.816-5.937-4.581-7.59 0.289 0.927 0.443 1.902 0.443 2.909z"></path>
<path fill="#9ea3b5" style="fill: var(--color5, #9ea3b5)" d="M25.28 14.231c0 5.386-5.086 9.751-11.36 9.751-1.126 0.002-2.247-0.142-3.334-0.426-0.828 0.412-2.732 1.204-5.936 1.719-0.283 0.045-0.5-0.245-0.388-0.504 0.503-1.165 0.957-2.716 1.095-4.132-1.742-1.713-2.797-3.956-2.797-6.408 0-5.386 5.086-9.751 11.36-9.751s11.36 4.366 11.36 9.751zM9.379 11.411c-0.402 0-0.727 0.326-0.727 0.727s0.326 0.727 0.727 0.727h5.241c0.402 0 0.727-0.326 0.727-0.727s-0.326-0.727-0.727-0.727h-5.241zM9.379 16.376c-0.402 0-0.727 0.326-0.727 0.727s0.326 0.727 0.727 0.727h9.379c0.402 0 0.727-0.326 0.727-0.727s-0.326-0.727-0.727-0.727h-9.379z"></path>
</symbol>
<symbol id="icon-Ic_Calendar-Filled" viewBox="0 0 32 32">
<path fill="#9ea3b5" style="fill: var(--color5, #9ea3b5)" d="M22.019 4.349c-0.001-0.594-0.449-1.040-1.015-1.039-0.579 0.001-1.014 0.447-1.012 1.042l0.001 0.946-7.82 0.011-0.001-0.946c-0.001-0.594-0.436-1.040-1.015-1.039-0.579 0-1.014 0.447-1.012 1.042l0.001 1.013c-3.673 0.342-6.013 2.872-6.008 6.789l0.014 9.99c0.005 4.254 2.667 6.927 6.855 6.921l9.29-0.012c-1.815-1.138-3.017-3.126-3.017-5.387 0-1.356 0.432-2.614 1.17-3.649-0.147-0.105-0.243-0.277-0.243-0.472v-1.876c0-0.32 0.259-0.579 0.579-0.579h1.876c0.32 0 0.579 0.259 0.579 0.579v0.119c0.797-0.336 1.675-0.522 2.599-0.522 1.642 0 3.143 0.588 4.293 1.561l-0.010-6.758c-0.004-3.891-2.43-6.428-6.103-6.72l-0.001-1.013zM12.176 7.389l7.82-0.011 0.001 1.094c0 0.581 0.436 1.040 1.015 1.039 0.566 0 1.012-0.461 1.012-1.042l-0.001-1.040c2.58 0.227 4.018 1.751 4.074 4.656v0.473l-19.931 0.027-0.001-0.42c-0.004-2.93 1.417-4.46 3.984-4.721l0.001 1.040c0 0.582 0.436 1.040 1.015 1.039 0.579 0 1.012-0.459 1.012-1.042l-0.001-1.093zM7.173 17.683c0-0.32 0.259-0.579 0.579-0.579h1.876c0.32 0 0.579 0.259 0.579 0.579v1.876c0 0.32-0.259 0.579-0.579 0.579h-1.876c-0.32 0-0.579-0.259-0.579-0.579v-1.876zM7.752 22.069c-0.32 0-0.579 0.259-0.579 0.579v1.876c0 0.32 0.259 0.579 0.579 0.579h1.876c0.32 0 0.579-0.259 0.579-0.579v-1.876c0-0.32-0.259-0.579-0.579-0.579h-1.876zM12.69 17.683c0-0.32 0.259-0.579 0.579-0.579h1.876c0.32 0 0.579 0.259 0.579 0.579v1.876c0 0.32-0.259 0.579-0.579 0.579h-1.876c-0.32 0-0.579-0.259-0.579-0.579v-1.876zM13.269 22.069c-0.32 0-0.579 0.259-0.579 0.579v1.876c0 0.32 0.259 0.579 0.579 0.579h1.876c0.32 0 0.579-0.259 0.579-0.579v-1.876c0-0.32-0.259-0.579-0.579-0.579h-1.876z"></path>
<path fill="#9ea3b5" style="fill: var(--color5, #9ea3b5)" d="M23.862 18.483c2.971 0 5.379 2.347 5.379 5.241s-2.408 5.241-5.379 5.241c-2.971 0-5.379-2.347-5.379-5.241s2.408-5.241 5.379-5.241zM24.58 21.517c0-0.32-0.259-0.579-0.579-0.579s-0.579 0.259-0.579 0.579v2.695c0 0.229 0.134 0.436 0.343 0.529l1.379 0.615c0.292 0.13 0.635-0.001 0.765-0.293s-0.001-0.635-0.293-0.765l-1.036-0.462v-2.319z"></path>
</symbol>
<symbol id="icon-Ic_Bathroom-Filled" viewBox="0 0 32 32">
<path fill="#fff" style="fill: var(--color1, #fff)" d="M30 17h-28c-0.265 0-0.52 0.105-0.707 0.293s-0.293 0.442-0.293 0.707v5c0.002 1.591 0.634 3.116 1.759 4.241s2.65 1.758 4.241 1.759h1v2c0 0.265 0.105 0.52 0.293 0.707s0.442 0.293 0.707 0.293c0.265 0 0.52-0.105 0.707-0.293s0.293-0.442 0.293-0.707v-2h12v2c0 0.265 0.105 0.52 0.293 0.707s0.442 0.293 0.707 0.293c0.265 0 0.52-0.105 0.707-0.293s0.293-0.442 0.293-0.707v-2h1c1.591-0.002 3.116-0.634 4.241-1.759s1.758-2.65 1.759-4.241v-5c0-0.265-0.105-0.52-0.293-0.707s-0.442-0.293-0.707-0.293z"></path>
<path fill="#fff" style="fill: var(--color1, #fff)" d="M16 6.1v-1.1c0-0.796 0.316-1.559 0.879-2.121s1.326-0.879 2.121-0.879 1.559 0.316 2.121 0.879c0.563 0.563 0.879 1.326 0.879 2.121v10h2v-10c0-1.326-0.527-2.598-1.464-3.536s-2.209-1.464-3.536-1.464c-1.326 0-2.598 0.527-3.536 1.464s-1.464 2.209-1.464 3.536v1.1c-1.129 0.232-2.143 0.846-2.871 1.739s-1.127 2.009-1.129 3.161c0 0.265 0.105 0.52 0.293 0.707s0.442 0.293 0.707 0.293h8c0.265 0 0.52-0.105 0.707-0.293s0.293-0.442 0.293-0.707c-0.001-1.152-0.4-2.269-1.129-3.161s-1.743-1.507-2.871-1.739z"></path>
</symbol>
<symbol id="icon-IC_arrow-Right" viewBox="0 0 32 32">
<path fill="none" stroke="#fff" style="stroke: var(--color1, #fff)" stroke-linejoin="round" stroke-linecap="round" stroke-miterlimit="4" stroke-width="2.56" d="M7.178 16h17.92"></path>
<path fill="none" stroke="#fff" style="stroke: var(--color1, #fff)" stroke-linejoin="round" stroke-linecap="round" stroke-miterlimit="4" stroke-width="2.56" d="M16.139 7.040l8.96 8.96-8.96 8.96"></path>
</symbol>
<symbol id="icon-IC_arrow-Left" viewBox="0 0 32 32">
<path fill="none" stroke="#fff" style="stroke: var(--color1, #fff)" stroke-linejoin="round" stroke-linecap="round" stroke-miterlimit="4" stroke-width="2.56" d="M25.099 16h-17.92"></path>
<path fill="none" stroke="#fff" style="stroke: var(--color1, #fff)" stroke-linejoin="round" stroke-linecap="round" stroke-miterlimit="4" stroke-width="2.56" d="M16.139 24.96l-8.96-8.96 8.96-8.96"></path>
</symbol>
<symbol id="icon-Ic_24-Map-pin" viewBox="0 0 32 32">
<path fill="none" stroke="#fff" style="stroke: var(--color1, #fff)" stroke-linejoin="round" stroke-linecap="round" stroke-miterlimit="4" stroke-width="2.6667" d="M28 13.333c0 6.83-6.426 12.946-9.873 15.735-1.255 1.016-2.998 1.016-4.253 0-3.447-2.789-9.873-8.905-9.873-15.735 0-3.183 1.264-6.235 3.515-8.485s5.303-3.515 8.485-3.515c3.183 0 6.235 1.264 8.485 3.515s3.515 5.303 3.515 8.485z"></path>
<path fill="none" stroke="#fff" style="stroke: var(--color1, #fff)" stroke-linejoin="round" stroke-linecap="round" stroke-miterlimit="4" stroke-width="2.6667" d="M16 17.333c2.209 0 4-1.791 4-4s-1.791-4-4-4-4 1.791-4 4c0 2.209 1.791 4 4 4z"></path>
</symbol>
<symbol id="icon-Ic_24H-Filled" viewBox="0 0 32 32">
<path fill="#9ea3b5" style="fill: var(--color5, #9ea3b5)" d="M14.593 18.043c0.006-0.005 0.012-0.010 0.018-0.015s0.011-0.010 0.016-0.015c0.022-0.022 0.041-0.046 0.057-0.073 0.045-0.075 0.068-0.167 0.068-0.278 0-0.151-0.042-0.266-0.126-0.345-0.048-0.048-0.11-0.081-0.185-0.1-0.050-0.013-0.105-0.019-0.167-0.019h-1.258l0.725-0.716c0.105-0.103 0.198-0.203 0.28-0.299 0.008-0.009 0.016-0.019 0.023-0.028 0.058-0.070 0.11-0.139 0.155-0.206 0.117-0.167 0.201-0.335 0.251-0.502 0.054-0.167 0.082-0.339 0.082-0.515 0-0.28-0.061-0.515-0.182-0.703-0.121-0.193-0.299-0.339-0.534-0.439-0.106-0.046-0.223-0.082-0.352-0.107-0.153-0.029-0.322-0.044-0.508-0.044-0.054 0-0.109 0.002-0.163 0.005-0.155 0.009-0.31 0.030-0.465 0.064-0.019 0.004-0.039 0.009-0.058 0.014l-0.015 0.004-0.016 0.004c-0.086 0.023-0.171 0.052-0.255 0.085s-0.166 0.072-0.247 0.116l-0.004 0.002c-0.015 0.008-0.028 0.016-0.042 0.024-0.087 0.055-0.148 0.122-0.184 0.202-0.042 0.088-0.056 0.178-0.044 0.27 0.017 0.092 0.054 0.174 0.113 0.245 0.063 0.071 0.138 0.117 0.226 0.138 0.092 0.021 0.195 0.006 0.308-0.044 0.019-0.010 0.039-0.020 0.058-0.029l0.003-0.002c0.077-0.037 0.151-0.065 0.221-0.087 0.028-0.008 0.055-0.015 0.082-0.021 0.019-0.005 0.037-0.009 0.056-0.013l0.004-0.001c0.091-0.020 0.178-0.030 0.261-0.030 0.059 0 0.113 0.004 0.163 0.011 0.087 0.012 0.162 0.035 0.225 0.068 0.023 0.012 0.044 0.026 0.064 0.040 0.105 0.080 0.157 0.199 0.157 0.358 0 0.126-0.036 0.251-0.107 0.377-0.017 0.032-0.037 0.066-0.061 0.102-0.048 0.072-0.108 0.151-0.182 0.236l-0.003 0.004c-0.031 0.036-0.064 0.072-0.099 0.11l-1.099 1.149c-0.049 0.052-0.093 0.104-0.132 0.157l-0.005 0.007-0.005 0.007c-0.024 0.033-0.045 0.066-0.065 0.099-0.050 0.092-0.075 0.197-0.075 0.314 0 0.167 0.040 0.295 0.119 0.383 0.058 0.058 0.139 0.095 0.244 0.113 0.048 0.008 0.1 0.012 0.158 0.012h2.185c0.134 0 0.24-0.030 0.318-0.090z"></path>
<path fill="#9ea3b5" style="fill: var(--color5, #9ea3b5)" d="M16.941 17.392h-1.262c-0.184 0-0.329-0.042-0.433-0.126-0.1-0.084-0.151-0.211-0.151-0.383 0-0.012 0-0.024 0.001-0.036 0-0.009 0.001-0.018 0.002-0.026 0.001-0.011 0.002-0.021 0.003-0.032 0.008-0.067 0.025-0.132 0.051-0.195 0.009-0.024 0.021-0.049 0.034-0.075 0.007-0.013 0.014-0.027 0.021-0.041 0.022-0.040 0.048-0.083 0.077-0.129 0.021-0.032 0.044-0.065 0.069-0.1l1.532-2.235c0.084-0.126 0.178-0.218 0.283-0.276s0.228-0.088 0.37-0.088c0.159 0 0.285 0.048 0.377 0.144 0.092 0.092 0.138 0.234 0.138 0.427v2.298h0.151c0.117 0 0.212 0.020 0.286 0.061 0.021 0.011 0.040 0.024 0.057 0.039 0.005 0.004 0.010 0.009 0.015 0.013 0.003 0.003 0.006 0.005 0.008 0.008 0.016 0.015 0.031 0.032 0.043 0.050 0.049 0.069 0.074 0.156 0.074 0.262 0 0.066-0.009 0.125-0.027 0.177-0.006 0.016-0.012 0.031-0.019 0.046-0.020 0.040-0.046 0.074-0.079 0.104-0.005 0.004-0.010 0.009-0.015 0.013-0.079 0.067-0.194 0.1-0.343 0.1h-0.151v0.226c0 0.080-0.009 0.153-0.027 0.217-0.024 0.083-0.063 0.153-0.117 0.21l-0.002 0.002c-0.092 0.095-0.228 0.143-0.407 0.143-0.176 0-0.314-0.048-0.414-0.144-0.096-0.096-0.144-0.239-0.144-0.427v-0.226zM16.941 16.519v-1.221l-0.823 1.221h0.823z"></path>
<path fill="#9ea3b5" style="fill: var(--color5, #9ea3b5)" d="M18.914 15.746c0.005-0.028 0.013-0.054 0.024-0.077 0.013-0.030 0.031-0.055 0.053-0.077s0.047-0.039 0.076-0.053c0.044-0.021 0.097-0.031 0.159-0.032l0.004-0c0.010 0 0.020 0 0.029 0.001 0.004 0 0.008 0 0.011 0.001 0.086 0.007 0.153 0.034 0.202 0.083 0.011 0.010 0.021 0.022 0.029 0.034 0.034 0.047 0.054 0.107 0.058 0.181 0.001 0.010 0.001 0.021 0.001 0.032v0.706c0.020-0.027 0.041-0.052 0.065-0.074 0.038-0.037 0.080-0.068 0.127-0.095 0.042-0.023 0.086-0.042 0.132-0.057 0.012-0.004 0.024-0.007 0.037-0.010 0.065-0.017 0.133-0.025 0.206-0.025 0.145 0 0.264 0.028 0.357 0.085 0.027 0.016 0.053 0.035 0.076 0.056 0.003 0.003 0.007 0.006 0.010 0.010l0.006 0.006c0.049 0.049 0.088 0.111 0.118 0.186 0.047 0.115 0.070 0.261 0.070 0.438v0.772c0 0.108-0.028 0.19-0.085 0.246-0.036 0.036-0.081 0.060-0.136 0.073-0.032 0.008-0.068 0.012-0.107 0.012-0.105 0-0.186-0.028-0.243-0.085s-0.085-0.138-0.085-0.246v-0.746c0-0.009-0-0.017-0-0.026-0-0.015-0.001-0.029-0.002-0.042l-0.001-0.010-0.001-0.006-0.001-0.008-0.001-0.004c-0.003-0.018-0.006-0.035-0.010-0.051-0.006-0.024-0.015-0.045-0.025-0.063l-0.003-0.004c-0.005-0.008-0.010-0.014-0.015-0.021-0.014-0.018-0.031-0.033-0.051-0.044-0.003-0.001-0.005-0.003-0.008-0.004-0.020-0.010-0.044-0.017-0.070-0.020-0.012-0.001-0.024-0.002-0.037-0.002-0.030 0-0.058 0.003-0.084 0.009-0.038 0.009-0.073 0.024-0.103 0.045-0.017 0.012-0.033 0.026-0.048 0.042-0.021 0.022-0.038 0.046-0.051 0.073-0.020 0.040-0.031 0.085-0.035 0.136-0.001 0.013-0.002 0.027-0.002 0.040v0.706c0 0.221-0.11 0.331-0.331 0.331-0.037 0-0.071-0.004-0.102-0.011-0.010-0.002-0.020-0.005-0.030-0.009-0.035-0.012-0.066-0.029-0.092-0.052-0.003-0.003-0.006-0.005-0.009-0.008s-0.004-0.004-0.006-0.006c-0.056-0.056-0.085-0.138-0.085-0.246v-1.996c0-0.033 0.003-0.064 0.008-0.092z"></path>
<path fill="#9ea3b5" style="fill: var(--color5, #9ea3b5)" d="M2.667 15.84c0-7.364 5.969-13.333 13.333-13.333s13.333 5.969 13.333 13.333c0 7.364-5.969 13.333-13.333 13.333s-13.333-5.969-13.333-13.333zM10.971 18.725c-0.012-0.012-0.024-0.024-0.035-0.037-0.307-0.339-0.382-0.748-0.382-1.064 0-0.267 0.059-0.542 0.199-0.8 0.006-0.010 0.011-0.020 0.017-0.030 0.098-0.167 0.216-0.317 0.346-0.454l0.001-0.002 0.505-0.528c-0.016-0.003-0.031-0.006-0.047-0.010l-0.010-0.002c-0.302-0.072-0.558-0.234-0.752-0.454-0.008-0.009-0.015-0.017-0.022-0.026-0.17-0.207-0.281-0.449-0.328-0.708-0.003-0.015-0.005-0.030-0.007-0.044-0.040-0.294 0.010-0.58 0.13-0.836 0.153-0.33 0.406-0.551 0.663-0.69 0.271-0.147 0.557-0.256 0.857-0.324l0.004-0.001c0.279-0.061 0.562-0.093 0.846-0.093 0.434 0 0.868 0.062 1.263 0.234 0.397 0.171 0.743 0.442 0.987 0.825 0.123 0.192 0.208 0.395 0.262 0.603l0.576-0.84c0.15-0.223 0.353-0.439 0.627-0.592 0.282-0.158 0.583-0.217 0.866-0.217 0.375 0 0.783 0.121 1.102 0.45 0.35 0.356 0.427 0.805 0.427 1.136v0.28c0.056-0.006 0.111-0.009 0.163-0.009 0.282 0 0.652 0.079 0.953 0.374 0.137 0.134 0.23 0.283 0.291 0.432 0.174 0.032 0.354 0.092 0.527 0.196 0.318 0.187 0.52 0.466 0.635 0.753 0.11 0.274 0.143 0.559 0.143 0.815v0.772c0 0.279-0.076 0.658-0.382 0.964-0.302 0.302-0.675 0.382-0.96 0.382-0.178 0-0.391-0.031-0.599-0.129-0.217 0.101-0.436 0.129-0.607 0.129-0.242 0-0.538-0.058-0.803-0.25-0.301 0.21-0.642 0.274-0.927 0.274-0.365 0-0.781-0.105-1.116-0.427-0.005-0.005-0.010-0.010-0.015-0.015-0.111-0.111-0.196-0.232-0.261-0.356h-0.428c-0.030 0-0.060-0.001-0.091-0.002-0.061 0.114-0.141 0.224-0.243 0.326-0.332 0.332-0.749 0.416-1.069 0.416h-2.185c-0.308 0-0.763-0.066-1.119-0.423zM13.814 8.508c0.265-0.083 0.531-0.15 0.797-0.204 4.248-0.828 8.381 1.914 9.261 6.163 0.73 3.527-1.010 6.992-4.041 8.597-0.028 0.011-0.057 0.024-0.085 0.038-0.315 0.16-0.645 0.3-0.988 0.419l0.243-0.647c0.187-0.497-0.064-1.052-0.562-1.24s-1.052 0.064-1.24 0.562l-0.956 2.541c-0.156 0.413-0.010 0.879 0.353 1.13l2.145 1.484c0.437 0.302 1.036 0.193 1.339-0.244s0.193-1.036-0.244-1.339l-0.552-0.382c1.849-0.625 3.414-1.767 4.563-3.226 0.048-0.042 0.092-0.089 0.132-0.142 0.669-0.879 1.188-1.865 1.531-2.915 0.026-0.081 0.042-0.162 0.046-0.243 0.36-1.213 0.489-2.51 0.348-3.829 0.015-0.093 0.017-0.189 0.004-0.287-0.073-0.539-0.192-1.078-0.358-1.613s-0.375-1.046-0.621-1.531c-0.044-0.088-0.1-0.165-0.165-0.233-0.622-1.145-1.459-2.138-2.447-2.938-0.053-0.071-0.116-0.136-0.19-0.192-0.879-0.67-1.865-1.188-2.915-1.531-0.070-0.023-0.141-0.037-0.211-0.044-1.27-0.39-2.635-0.527-4.022-0.363-0.042 0-0.084 0.003-0.127 0.009-0.428 0.058-0.856 0.145-1.283 0.262-2.62 0.701-4.731 2.416-5.992 4.625-0.046 0.080-0.079 0.164-0.1 0.249-0.265 0.5-0.488 1.022-0.664 1.561-0.166 0.506 0.111 1.051 0.617 1.216s1.051-0.111 1.216-0.617c0.276-0.845 0.693-1.639 1.232-2.346 0.047-0.062 0.086-0.127 0.116-0.196 0.663-0.812 1.488-1.496 2.44-1.996 0.049-0.016 0.098-0.035 0.145-0.059 0.389-0.197 0.801-0.365 1.233-0.5zM7.243 16.28c0.528-0.072 1.013 0.298 1.085 0.826 0.059 0.433 0.154 0.867 0.289 1.299s0.302 0.844 0.5 1.233c0.241 0.475 0.051 1.055-0.424 1.296s-1.055 0.051-1.296-0.424c-0.246-0.485-0.454-0.996-0.621-1.531s-0.285-1.074-0.358-1.613c-0.072-0.528 0.298-1.013 0.826-1.085zM11.367 22.339c-0.424-0.323-1.029-0.241-1.351 0.183s-0.241 1.029 0.183 1.351c0.879 0.669 1.865 1.188 2.915 1.531 0.506 0.166 1.051-0.111 1.216-0.617s-0.111-1.051-0.617-1.216c-0.845-0.276-1.639-0.693-2.346-1.232z"></path>
<path fill="#9ea3b5" style="fill: var(--color5, #9ea3b5)" d="M12.090 18.133c-0.184 0-0.318-0.042-0.402-0.126-0.080-0.088-0.119-0.216-0.119-0.383 0-0.117 0.025-0.222 0.075-0.314 0.054-0.092 0.123-0.182 0.207-0.27l1.099-1.149c0.163-0.176 0.278-0.326 0.345-0.452 0.071-0.126 0.107-0.251 0.107-0.377 0-0.159-0.052-0.278-0.157-0.358s-0.255-0.119-0.452-0.119c-0.1 0-0.207 0.015-0.32 0.044-0.113 0.025-0.234 0.071-0.364 0.138-0.113 0.050-0.216 0.065-0.308 0.044-0.088-0.021-0.163-0.067-0.226-0.138-0.059-0.071-0.096-0.153-0.113-0.245-0.013-0.092 0.002-0.182 0.044-0.27 0.042-0.092 0.117-0.167 0.226-0.226 0.193-0.105 0.391-0.18 0.596-0.226 0.209-0.046 0.419-0.069 0.628-0.069 0.343 0 0.63 0.050 0.86 0.151 0.234 0.1 0.412 0.247 0.534 0.439 0.121 0.188 0.182 0.423 0.182 0.703 0 0.176-0.027 0.347-0.082 0.515-0.050 0.167-0.134 0.335-0.251 0.502-0.113 0.167-0.266 0.345-0.458 0.534l-1.017 1.005v-0.289l1.551-0c0.155 0 0.272 0.040 0.352 0.119 0.084 0.080 0.126 0.195 0.126 0.345s-0.042 0.268-0.126 0.352c-0.080 0.080-0.197 0.119-0.352 0.119h-2.185z"></path>
<path fill="#9ea3b5" style="fill: var(--color5, #9ea3b5)" d="M17.5 18.189c-0.176 0-0.314-0.048-0.414-0.144-0.096-0.096-0.144-0.239-0.144-0.427v-0.226h-1.262c-0.184 0-0.329-0.042-0.433-0.126-0.1-0.084-0.151-0.211-0.151-0.383 0-0.1 0.019-0.197 0.056-0.289 0.038-0.096 0.105-0.211 0.201-0.345l1.532-2.235c0.084-0.126 0.178-0.218 0.283-0.276s0.228-0.088 0.37-0.088c0.159 0 0.285 0.048 0.377 0.144 0.092 0.092 0.138 0.234 0.138 0.427v2.298h0.151c0.159 0 0.278 0.038 0.358 0.113 0.084 0.075 0.126 0.182 0.126 0.32 0 0.142-0.042 0.251-0.126 0.326-0.080 0.075-0.199 0.113-0.358 0.113h-0.151v0.226c0 0.184-0.048 0.326-0.144 0.427-0.092 0.096-0.228 0.144-0.408 0.144zM16.941 16.519v-1.482h0.176l-1.18 1.752v-0.27l1.005-0z"></path>
<path fill="#9ea3b5" style="fill: var(--color5, #9ea3b5)" d="M19.23 18.166c-0.103 0-0.183-0.028-0.239-0.085s-0.085-0.138-0.085-0.246v-1.996c0-0.108 0.028-0.19 0.085-0.246s0.136-0.085 0.239-0.085c0.105 0 0.186 0.028 0.243 0.085 0.059 0.056 0.088 0.139 0.088 0.246v0.802h-0.059c0.059-0.115 0.142-0.203 0.25-0.265 0.11-0.061 0.235-0.092 0.375-0.092 0.145 0 0.264 0.028 0.357 0.085 0.093 0.054 0.163 0.14 0.21 0.257 0.047 0.115 0.070 0.261 0.070 0.438v0.772c0 0.108-0.028 0.19-0.085 0.246s-0.137 0.085-0.243 0.085c-0.105 0-0.186-0.028-0.243-0.085s-0.085-0.138-0.085-0.246v-0.746c0-0.11-0.020-0.189-0.059-0.235-0.037-0.047-0.092-0.070-0.165-0.070-0.098 0-0.176 0.032-0.235 0.096-0.059 0.061-0.088 0.145-0.088 0.25v0.706c0 0.221-0.11 0.331-0.331 0.331z"></path>
</symbol>
<symbol id="icon-Ic_24-Guarantee" viewBox="0 0 32 32">
<path fill="none" stroke="#fff" style="stroke: var(--color1, #fff)" stroke-linejoin="miter" stroke-linecap="butt" stroke-miterlimit="4" stroke-width="2.6667" d="M14.1 3.928c1.045-1.060 2.755-1.060 3.799 0l1.391 1.412c0.506 0.514 1.199 0.801 1.92 0.795l1.982-0.015c1.488-0.011 2.698 1.198 2.687 2.687l-0.015 1.982c-0.005 0.721 0.281 1.414 0.795 1.92l1.412 1.391c1.060 1.045 1.060 2.755 0 3.799l-1.412 1.391c-0.514 0.506-0.801 1.199-0.795 1.92l0.015 1.982c0.011 1.488-1.198 2.698-2.687 2.687l-1.982-0.015c-0.721-0.005-1.413 0.281-1.92 0.795l-1.391 1.412c-1.045 1.060-2.755 1.060-3.799 0l-1.391-1.412c-0.506-0.514-1.199-0.801-1.92-0.795l-1.982 0.015c-1.488 0.011-2.698-1.198-2.687-2.687l0.015-1.982c0.005-0.721-0.281-1.413-0.795-1.92l-1.412-1.391c-1.060-1.045-1.060-2.755 0-3.799l1.412-1.391c0.514-0.506 0.801-1.199 0.795-1.92l-0.015-1.982c-0.011-1.488 1.198-2.698 2.687-2.687l1.982 0.015c0.721 0.005 1.414-0.281 1.92-0.795l1.391-1.412z"></path>
<path fill="none" stroke="#fff" style="stroke: var(--color1, #fff)" stroke-linejoin="round" stroke-linecap="round" stroke-miterlimit="4" stroke-width="2.6667" d="M21.333 13.333l-5.833 5.333-3.5-2.51"></path>
</symbol>
<symbol id="icon-Ic_24-Clock" viewBox="0 0 32 32">
<path fill="none" stroke="#fff" style="stroke: var(--color1, #fff)" stroke-linejoin="round" stroke-linecap="round" stroke-miterlimit="4" stroke-width="2.6667" d="M16 29.333c7.364 0 13.333-5.97 13.333-13.333s-5.97-13.333-13.333-13.333c-7.364 0-13.333 5.97-13.333 13.333s5.97 13.333 13.333 13.333z"></path>
<path fill="none" stroke="#fff" style="stroke: var(--color1, #fff)" stroke-linejoin="round" stroke-linecap="round" stroke-miterlimit="4" stroke-width="2.6667" d="M16 8v8l5.333 2.667"></path>
</symbol>
<symbol id="icon-Ic_24-Check" viewBox="0 0 32 32">
<path fill="none" stroke="#15b2f5" style="stroke: var(--color3, #15b2f5)" stroke-linejoin="round" stroke-linecap="round" stroke-miterlimit="4" stroke-width="2.56" d="M26.24 8.32l-14.080 14.080-6.4-6.4"></path>
</symbol>
<symbol id="icon-Ic_24-Calendar" viewBox="0 0 32 32">
<path fill="none" stroke="#fff" style="stroke: var(--color1, #fff)" stroke-linejoin="round" stroke-linecap="round" stroke-miterlimit="4" stroke-width="2.6667" d="M25.333 5.333h-18.667c-1.473 0-2.667 1.194-2.667 2.667v18.667c0 1.473 1.194 2.667 2.667 2.667h18.667c1.473 0 2.667-1.194 2.667-2.667v-18.667c0-1.473-1.194-2.667-2.667-2.667z"></path>
<path fill="none" stroke="#fff" style="stroke: var(--color1, #fff)" stroke-linejoin="round" stroke-linecap="round" stroke-miterlimit="4" stroke-width="2.6667" d="M20 18.667l-4.167 5.333-2.5-2.51"></path>
<path fill="none" stroke="#fff" style="stroke: var(--color1, #fff)" stroke-linejoin="round" stroke-linecap="round" stroke-miterlimit="4" stroke-width="2.6667" d="M21.333 2.667v5.333"></path>
<path fill="none" stroke="#fff" style="stroke: var(--color1, #fff)" stroke-linejoin="round" stroke-linecap="round" stroke-miterlimit="4" stroke-width="2.6667" d="M10.667 2.667v5.333"></path>
<path fill="none" stroke="#fff" style="stroke: var(--color1, #fff)" stroke-linejoin="round" stroke-linecap="round" stroke-miterlimit="4" stroke-width="2.6667" d="M4 13.333h24"></path>
</symbol>
<symbol id="icon-facebook" viewBox="0 0 32 32">
<path fill="#fff" style="fill: var(--color1, #fff)" d="M24 2.667h-4c-1.768 0-3.464 0.702-4.714 1.953s-1.953 2.946-1.953 4.714v4h-4v5.333h4v10.667h5.333v-10.667h4l1.333-5.333h-5.333v-4c0-0.354 0.141-0.693 0.391-0.943s0.589-0.391 0.943-0.391h4v-5.333z"></path>
</symbol>
<symbol id="icon-menu" viewBox="0 0 33 32">
<path fill="none" stroke="#fff" style="stroke: var(--color1, #fff)" stroke-linejoin="round" stroke-linecap="round" stroke-miterlimit="4" stroke-width="2.6667" d="M5.018 16h24"></path>
<path fill="none" stroke="#fff" style="stroke: var(--color1, #fff)" stroke-linejoin="round" stroke-linecap="round" stroke-miterlimit="4" stroke-width="2.6667" d="M5.018 8h24"></path>
<path fill="none" stroke="#fff" style="stroke: var(--color1, #fff)" stroke-linejoin="round" stroke-linecap="round" stroke-miterlimit="4" stroke-width="2.6667" d="M5.018 24h24"></path>
</symbol>
<symbol id="icon-IC_x" viewBox="0 0 32 32">
<path fill="none" stroke="#fff" style="stroke: var(--color1, #fff)" stroke-linejoin="round" stroke-linecap="round" stroke-miterlimit="4" stroke-width="2.6667" d="M24 8l-16 16"></path>
<path fill="none" stroke="#fff" style="stroke: var(--color1, #fff)" stroke-linejoin="round" stroke-linecap="round" stroke-miterlimit="4" stroke-width="2.6667" d="M8 8l16 16"></path>
</symbol>
<symbol id="icon-HomePro" viewBox="0 0 174 32">
<path fill="#fff" style="fill: var(--color1, #fff)" d="M0.8 30.074v-28.608h5.952v12.365h11.136v-12.365h5.952v28.608h-5.952v-11.059h-11.136v11.059h-5.952z"></path>
<path fill="#fff" style="fill: var(--color1, #fff)" d="M38.909 30.534c-2.074 0-3.968-0.474-5.683-1.421-1.69-0.947-3.046-2.24-4.070-3.878-0.998-1.664-1.498-3.546-1.498-5.645 0-2.125 0.499-4.006 1.498-5.645 1.024-1.638 2.381-2.931 4.070-3.878 1.715-0.947 3.61-1.421 5.683-1.421s3.955 0.474 5.645 1.421c1.69 0.947 3.034 2.24 4.032 3.878 1.024 1.638 1.536 3.52 1.536 5.645 0 2.099-0.512 3.981-1.536 5.645-0.998 1.638-2.342 2.931-4.032 3.878s-3.571 1.421-5.645 1.421zM38.909 25.35c1.050 0 1.958-0.243 2.726-0.73 0.794-0.486 1.408-1.165 1.843-2.035 0.461-0.87 0.691-1.869 0.691-2.995s-0.23-2.112-0.691-2.957c-0.435-0.87-1.050-1.549-1.843-2.035-0.768-0.512-1.677-0.768-2.726-0.768s-1.971 0.256-2.765 0.768c-0.794 0.486-1.421 1.165-1.882 2.035-0.435 0.845-0.653 1.83-0.653 2.957s0.218 2.125 0.653 2.995c0.461 0.87 1.088 1.549 1.882 2.035s1.715 0.73 2.765 0.73z"></path>
<path fill="#fff" style="fill: var(--color1, #fff)" d="M53.515 30.074v-20.966h5.376v5.107l-0.576-0.845c0.307-1.613 1.050-2.803 2.227-3.571s2.586-1.152 4.224-1.152c1.741 0 3.264 0.448 4.57 1.344 1.331 0.87 2.163 2.048 2.496 3.533l-1.651 0.154c0.691-1.715 1.677-2.982 2.957-3.802s2.778-1.229 4.493-1.229c1.51 0 2.842 0.333 3.994 0.998 1.178 0.666 2.099 1.6 2.765 2.803 0.666 1.178 0.998 2.56 0.998 4.147v13.478h-5.76v-12.25c0-0.819-0.154-1.523-0.461-2.112-0.282-0.589-0.691-1.050-1.229-1.382s-1.19-0.499-1.958-0.499c-0.742 0-1.395 0.166-1.958 0.499-0.538 0.333-0.96 0.794-1.267 1.382-0.282 0.589-0.422 1.293-0.422 2.112v12.25h-5.76v-12.25c0-0.819-0.154-1.523-0.461-2.112-0.282-0.589-0.691-1.050-1.229-1.382s-1.19-0.499-1.958-0.499c-0.742 0-1.395 0.166-1.958 0.499-0.538 0.333-0.96 0.794-1.267 1.382-0.282 0.589-0.422 1.293-0.422 2.112v12.25h-5.76z"></path>
<path fill="#fff" style="fill: var(--color1, #fff)" d="M99.277 30.534c-2.227 0-4.16-0.486-5.798-1.459-1.638-0.998-2.906-2.33-3.802-3.994s-1.344-3.507-1.344-5.53c0-2.099 0.461-3.968 1.382-5.606 0.947-1.638 2.214-2.931 3.802-3.878s3.379-1.421 5.376-1.421c1.664 0 3.136 0.269 4.416 0.806 1.28 0.512 2.355 1.242 3.226 2.189 0.896 0.947 1.574 2.048 2.035 3.302 0.461 1.229 0.691 2.573 0.691 4.032 0 0.41-0.026 0.819-0.077 1.229-0.026 0.384-0.090 0.717-0.192 0.998h-15.706v-4.224h12.442l-2.726 1.997c0.256-1.101 0.243-2.074-0.038-2.918-0.282-0.87-0.781-1.549-1.498-2.035-0.691-0.512-1.549-0.768-2.573-0.768-0.998 0-1.856 0.243-2.573 0.73s-1.254 1.203-1.613 2.15c-0.358 0.947-0.499 2.099-0.422 3.456-0.102 1.178 0.038 2.214 0.422 3.11s0.973 1.6 1.766 2.112c0.794 0.486 1.754 0.73 2.88 0.73 1.024 0 1.894-0.205 2.611-0.614 0.742-0.41 1.318-0.973 1.728-1.69l4.608 2.189c-0.41 1.024-1.062 1.92-1.958 2.688-0.87 0.768-1.907 1.37-3.11 1.805-1.203 0.41-2.522 0.614-3.955 0.614z"></path>
<path fill="#fff" style="fill: var(--color1, #fff)" d="M113.075 30.074v-28.608h10.982c1.971 0 3.712 0.346 5.222 1.037 1.536 0.691 2.739 1.715 3.61 3.072s1.306 3.034 1.306 5.030c0 1.946-0.448 3.597-1.344 4.954-0.87 1.357-2.074 2.394-3.61 3.11-1.51 0.691-3.238 1.037-5.184 1.037h-5.030v10.368h-5.952zM119.027 14.522h5.069c0.845 0 1.574-0.166 2.189-0.499s1.088-0.794 1.421-1.382c0.358-0.589 0.538-1.267 0.538-2.035 0-0.794-0.179-1.485-0.538-2.074-0.333-0.589-0.806-1.050-1.421-1.382s-1.344-0.499-2.189-0.499h-5.069v7.872z"></path>
<path fill="#fff" style="fill: var(--color1, #fff)" d="M137.59 30.074v-20.966h5.376v5.030l-0.384-0.73c0.461-1.766 1.216-2.957 2.266-3.571 1.075-0.64 2.342-0.96 3.802-0.96h1.229v4.992h-1.805c-1.408 0-2.547 0.435-3.418 1.306-0.87 0.845-1.306 2.048-1.306 3.61v11.29h-5.76z"></path>
<path fill="#fff" style="fill: var(--color1, #fff)" d="M162.81 30.534c-2.074 0-3.969-0.474-5.684-1.421-1.69-0.947-3.046-2.24-4.070-3.878-0.998-1.664-1.498-3.546-1.498-5.645 0-2.125 0.499-4.006 1.498-5.645 1.024-1.638 2.381-2.931 4.070-3.878 1.715-0.947 3.61-1.421 5.684-1.421s3.955 0.474 5.645 1.421c1.69 0.947 3.034 2.24 4.032 3.878 1.024 1.638 1.536 3.52 1.536 5.645 0 2.099-0.512 3.981-1.536 5.645-0.998 1.638-2.342 2.931-4.032 3.878s-3.571 1.421-5.645 1.421zM162.81 25.35c1.050 0 1.958-0.243 2.726-0.73 0.794-0.486 1.408-1.165 1.843-2.035 0.461-0.87 0.691-1.869 0.691-2.995s-0.23-2.112-0.691-2.957c-0.435-0.87-1.050-1.549-1.843-2.035-0.768-0.512-1.677-0.768-2.726-0.768s-1.971 0.256-2.765 0.768c-0.794 0.486-1.421 1.165-1.882 2.035-0.435 0.845-0.653 1.83-0.653 2.957s0.218 2.125 0.653 2.995c0.461 0.87 1.088 1.549 1.882 2.035s1.715 0.73 2.765 0.73z"></path>
</symbol>
</defs>
</svg>
